<svg width="17" height="18" viewBox="0 0 17 18" fill="none" xmlns="http://www.w3.org/2000/svg">
<path fill-rule="evenodd" clip-rule="evenodd" d="M8.5 13.5C10.9853 13.5 13 11.4853 13 9C13 6.51472 10.9853 4.5 8.5 4.5C6.01472 4.5 4 6.51472 4 9C4 11.4853 6.01472 13.5 8.5 13.5ZM8.5 12C10.1568 12 11.5 10.6568 11.5 9C11.5 7.34314 10.1568 6 8.5 6C6.84314 6 5.5 7.34314 5.5 9C5.5 10.6568 6.84314 12 8.5 12Z" fill="#0F0F0F"/>
<path d="M13 3.75C12.5858 3.75 12.25 4.08579 12.25 4.5C12.25 4.91421 12.5858 5.25 13 5.25C13.4142 5.25 13.75 4.91421 13.75 4.5C13.75 4.08579 13.4142 3.75 13 3.75Z" fill="#0F0F0F"/>
<path fill-rule="evenodd" clip-rule="evenodd" d="M0.74047 3.20705C0.25 4.16965 0.25 5.42977 0.25 7.95V10.05C0.25 12.5702 0.25 13.8304 0.74047 14.7929C1.1719 15.6397 1.86031 16.3281 2.70705 16.7595C3.66965 17.25 4.92977 17.25 7.45 17.25H9.55C12.0702 17.25 13.3304 17.25 14.2929 16.7595C15.1397 16.3281 15.8281 15.6397 16.2595 14.7929C16.75 13.8304 16.75 12.5702 16.75 10.05V7.95C16.75 5.42977 16.75 4.16965 16.2595 3.20705C15.8281 2.36031 15.1397 1.6719 14.2929 1.24047C13.3304 0.75 12.0702 0.75 9.55 0.75H7.45C4.92977 0.75 3.66965 0.75 2.70705 1.24047C1.86031 1.6719 1.1719 2.36031 0.74047 3.20705ZM9.55 2.25H7.45C6.16513 2.25 5.29169 2.25117 4.61656 2.30632C3.95893 2.36005 3.62263 2.45744 3.38803 2.57698C2.82354 2.8646 2.3646 3.32354 2.07698 3.88803C1.95744 4.12263 1.86005 4.45893 1.80632 5.11656C1.75117 5.79169 1.75 6.66513 1.75 7.95V10.05C1.75 11.3349 1.75117 12.2083 1.80632 12.8834C1.86005 13.5411 1.95744 13.8774 2.07698 14.112C2.3646 14.6764 2.82354 15.1354 3.38803 15.423C3.62263 15.5425 3.95893 15.64 4.61656 15.6937C5.29169 15.7488 6.16513 15.75 7.45 15.75H9.55C10.8349 15.75 11.7083 15.7488 12.3834 15.6937C13.0411 15.64 13.3774 15.5425 13.612 15.423C14.1764 15.1354 14.6354 14.6764 14.923 14.112C15.0425 13.8774 15.14 13.5411 15.1937 12.8834C15.2488 12.2083 15.25 11.3349 15.25 10.05V7.95C15.25 6.66513 15.2488 5.79169 15.1937 5.11656C15.14 4.45893 15.0425 4.12263 14.923 3.88803C14.6354 3.32354 14.1764 2.8646 13.612 2.57698C13.3774 2.45744 13.0411 2.36005 12.3834 2.30632C11.7083 2.25117 10.8349 2.25 9.55 2.25Z" fill="#0F0F0F"/>
</svg>
