<svg width="34" height="34" viewBox="0 0 34 34" fill="none" xmlns="http://www.w3.org/2000/svg">
<path d="M17 33.125C25.9056 33.125 33.125 25.9056 33.125 17C33.125 8.09441 25.9056 0.875 17 0.875C8.09441 0.875 0.875 8.09441 0.875 17C0.875 25.9056 8.09441 33.125 17 33.125Z" stroke="white" stroke-linecap="round" stroke-linejoin="round"/>
<path d="M4.36715 27.0213C9.37715 16.9545 18.6846 11.5802 20.4183 12.6733C21.6897 13.5462 22.4164 23.5529 18.1728 33.0823" stroke="white" stroke-linecap="round" stroke-linejoin="round"/>
<path d="M1.9457 11.2221C2.65183 9.87641 3.42013 8.59639 4.2314 8.57269C5.01538 8.54966 7.84985 13.0352 9.7439 19.2452" stroke="white" stroke-linecap="round" stroke-linejoin="round"/>
<path d="M14.0413 15.3419C13.9832 12.9776 13.0317 9.94406 12.3533 9.78439C11.3033 9.53689 8.73253 11.4123 7.42925 13.2489" stroke="white" stroke-linecap="round" stroke-linejoin="round"/>
<path d="M20.5522 25.7238C23.2414 26.3719 26.8592 28.5894 26.8054 28.969C26.4375 29.7812 25.8416 30.469 25.0901 30.949" stroke="white" stroke-linecap="round" stroke-linejoin="round"/>
<path d="M24.8194 27.5094C27.8309 24.328 28.3837 20.5546 28.0393 20.1118C27.6948 19.6689 24.6383 19.5643 21.3418 20.026" stroke="white" stroke-linecap="round" stroke-linejoin="round"/>
<path d="M10.9941 17.9592C10.9941 17.9592 12.4341 16.7411 12.9403 16.9182C13.4602 17.1002 15.5503 24.6714 13.3143 32.6982" stroke="white" stroke-linecap="round" stroke-linejoin="round"/>
</svg>
