<svg width="15" height="16" viewBox="0 0 15 16" fill="none" xmlns="http://www.w3.org/2000/svg">
<path d="M11.1163 2.8508C10.5664 2.22045 10.2359 1.39854 10.2359 0.5H9.54697M11.1163 2.8508C11.6173 3.42547 12.2958 3.84341 13.0684 4.00706C13.3084 4.05931 13.5589 4.0872 13.8199 4.0872V6.66432C12.4837 6.66432 11.2449 6.23601 10.2358 5.51158V10.753C10.2358 13.372 8.10615 15.5 5.49289 15.5C4.12532 15.5 2.89 14.9148 2.02354 13.985C1.23364 13.1352 0.749954 11.9998 0.749954 10.753C0.749954 8.17235 2.81694 6.06882 5.37805 6.01309M11.1163 2.8508C11.1029 2.84207 11.0896 2.83326 11.0763 2.82436M3.73912 12.0138C3.48163 11.6586 3.32851 11.2233 3.32851 10.7496C3.32851 9.55505 4.29937 8.58335 5.49295 8.58335C5.71565 8.58335 5.93137 8.6216 6.1332 8.6843V6.05144C5.92441 6.02355 5.71216 6.00612 5.49295 6.00612C5.45465 6.00612 5.14633 6.02663 5.10805 6.02663M9.5433 0.5H7.65727L7.65382 10.8331C7.61205 11.9894 6.65857 12.9193 5.49289 12.9193C4.76908 12.9193 4.13228 12.5606 3.73559 12.0173" stroke="black" stroke-linejoin="round"/>
</svg>
