<svg
                                width="30"
                                height="30"
                                viewBox="0 0 30 30"
                                fill="none"
                                xmlns="http://www.w3.org/2000/svg"
                                className=""
                            >
                                <path
                                    className="w-16"
                                    d="M22 7.9C21.0836 6.97678 19.9929 6.24497 18.7913 5.7471C17.5895 5.24924 16.3007 4.99529 15 5C13.2611 5.0017 11.5531 5.46025 10.0471 6.32973C8.54118 7.1992 7.2901 8.44909 6.41918 9.9542C5.54825 11.4593 5.08807 13.1669 5.0847 14.9058C5.08134 16.6448 5.53491 18.354 6.4 19.8625L5 25L10.25 23.625C11.6997 24.4315 13.3286 24.8614 14.9875 24.875C17.6246 24.8751 20.155 23.8335 22.0278 21.977C23.9006 20.1206 24.9644 17.5995 24.9875 14.9625C24.9788 13.6466 24.7103 12.3454 24.1976 11.1335C23.685 9.92158 22.9381 8.82275 22 7.9ZM15 23.1625C13.5221 23.1635 12.0713 22.7663 10.8 22.0125L10.5 21.825L7.3875 22.65L8.2125 19.6125L8.0125 19.3C6.94906 17.5834 6.55218 15.5363 6.89703 13.5465C7.24188 11.5568 8.30451 9.7627 9.88363 8.50404C11.4627 7.24537 13.4486 6.60958 15.4651 6.71712C17.4816 6.82464 19.3888 7.66803 20.825 9.0875C22.395 10.6227 23.2937 12.7169 23.325 14.9125C23.3053 17.1074 22.4194 19.2056 20.8603 20.7508C19.3013 22.2958 17.195 23.1626 15 23.1625ZM19.5125 16.9875C19.2625 16.8625 18.05 16.2625 17.825 16.1875C17.6 16.1125 17.425 16.0625 17.2625 16.3125C17.018 16.6476 16.755 16.9689 16.475 17.275C16.3375 17.45 16.1875 17.4625 15.9375 17.275C14.5121 16.7118 13.3246 15.6743 12.575 14.3375C12.3125 13.9 12.825 13.925 13.3 12.9875C13.3351 12.9199 13.3534 12.8449 13.3534 12.7688C13.3534 12.6926 13.3351 12.6176 13.3 12.55C13.3 12.425 12.7375 11.2 12.5375 10.7125C12.3375 10.225 12.1375 10.3 11.975 10.2875H11.4875C11.3612 10.2894 11.2367 10.3183 11.1225 10.3722C11.0082 10.4261 10.9068 10.5038 10.825 10.6C10.5445 10.8727 10.3258 11.2024 10.1834 11.5668C10.0411 11.9312 9.97859 12.3219 10 12.7125C10.0784 13.6476 10.4305 14.5389 11.0125 15.275C12.0778 16.8698 13.5376 18.1616 15.25 19.025C16.1481 19.5493 17.1919 19.7685 18.225 19.65C18.569 19.5818 18.8949 19.4419 19.1813 19.2394C19.4678 19.037 19.7084 18.7765 19.8875 18.475C20.0535 18.107 20.1058 17.6979 20.0375 17.3C19.925 17.175 19.7625 17.1125 19.5125 16.9875Z"
                                    fill="white"
                                />
                            </svg>